<svg width="21" height="19" viewBox="0 0 21 19" fill="none" xmlns="http://www.w3.org/2000/svg">
<path d="M17.8023 13.1901C16.0661 15.193 13.6428 17.1732 10.7941 18.917C10.7055 18.9713 10.6037 19 10.5 19C10.3963 19 10.2945 18.9713 10.2059 18.917L10.888 1.85841C10.8707 1.83716 10.8533 1.81604 10.8358 1.79505C11.937 0.654075 13.4484 0.00228492 15.0747 0M17.8023 13.1901C19.924 10.7419 21 8.31287 21 5.96927M17.8023 13.1901L17.4245 12.8626M17.8023 13.1901L17.4244 12.8626C17.4244 12.8626 17.4244 12.8626 17.4245 12.8626M21 5.96927C20.9998 2.67876 18.3415 0 15.0747 0M21 5.96927H20.5M21 5.96927L20.5 5.96931M15.0747 0V0.5C15.0748 0.5 15.075 0.5 15.0751 0.5M15.0747 0L15.0754 0.499999C15.0753 0.5 15.0752 0.5 15.0751 0.5M15.0751 0.5C18.062 0.500188 20.4998 2.95145 20.5 5.96927M15.0751 0.5C13.4269 0.502421 11.9113 1.23148 10.8879 2.48939C10.7929 2.60611 10.6504 2.67386 10.4999 2.67384C10.3494 2.67382 10.207 2.60602 10.112 2.48927C9.08922 1.23126 7.57306 0.5 5.92527 0.5C4.48764 0.5 3.10813 1.07531 2.09041 2.10059C1.07257 3.12599 0.50006 4.51752 0.5 5.96927H20.5M20.5 5.96927V5.96931M20.5 5.96931C20.5 8.15344 19.4975 10.4706 17.4245 12.8626M20.5 5.96931L0.5 5.96929C0.500006 8.153 1.50255 10.4709 3.57555 12.8626C5.27063 14.8181 7.65119 16.7669 10.4669 18.4905L10.467 18.4906C10.4772 18.4969 10.4886 18.5 10.5 18.5C10.5114 18.5 10.5228 18.4969 10.533 18.4906L10.5331 18.4905C13.3488 16.7669 15.7294 14.8181 17.4245 12.8626" stroke="#2B526E" stroke-linejoin="round"/>
</svg>
