<svg width="49" height="88" viewBox="0 0 49 88" fill="none" xmlns="http://www.w3.org/2000/svg">
<g opacity="0.05">
<path fill-rule="evenodd" clip-rule="evenodd" d="M34.0816 25.5362L8.01776 28.9648C2.95676 29.6306 0.373811 33.5944 0.915431 37.7117L6.5701 80.6982C7.10964 84.7997 11.6414 87.591 16.6917 86.9267L40.6873 83.7702C45.743 83.1051 49.3933 79.2375 48.8538 75.136L43.1991 32.1495C42.6628 28.0315 39.1426 24.8705 34.0816 25.5362ZM43.5917 73.9839C43.8948 76.2884 41.3366 78.5391 37.8896 78.9925L18.0624 81.6007C14.6101 82.0548 11.5675 80.5409 11.2644 78.2364L6.62757 42.9878C6.47461 41.825 6.53705 36.4722 22.7469 39.0984C38.9702 41.7444 38.8047 37.5937 38.9549 38.7353L43.5917 73.9839Z" fill="black"/>
<path fill-rule="evenodd" clip-rule="evenodd" d="M30.1982 15.0672L22.7286 10.8557L21.8185 3.93703C21.5529 1.91799 19.5638 0.518188 17.378 0.805719C15.1976 1.09255 13.6441 2.96373 13.909 4.97748L14.8018 11.764L9.17854 17.8268L9.01009 17.8275L9.73805 23.3613L30.928 20.5739L30.2007 15.0453L30.1982 15.0672Z" fill="black"/>
</g>
</svg>
