<svg width="127" height="127" viewBox="0 0 127 127" fill="none" xmlns="http://www.w3.org/2000/svg">
<path opacity="0.5" d="M63.5 0C50.9409 0 38.6638 3.72421 28.2213 10.7017C17.7788 17.6791 9.63984 27.5965 4.83368 39.1996C0.0275135 50.8027 -1.23 63.5704 1.22016 75.8882C3.67032 88.206 9.71811 99.5206 18.5987 108.401C27.4794 117.282 38.794 123.33 51.1118 125.78C63.4296 128.23 76.1973 126.972 87.8004 122.166C99.4035 117.36 109.321 109.221 116.298 98.7787C123.276 88.3362 127 76.0591 127 63.5C127 55.161 125.358 46.9038 122.166 39.1996C118.975 31.4954 114.298 24.4952 108.401 18.5987C102.505 12.7022 95.5046 8.02482 87.8004 4.83365C80.0962 1.64248 71.839 0 63.5 0V0ZM88.9 69.85H63.5C61.8159 69.85 60.2007 69.181 59.0099 67.9901C57.819 66.7992 57.15 65.1841 57.15 63.5V38.1C57.15 36.4159 57.819 34.8007 59.0099 33.6099C60.2007 32.419 61.8159 31.75 63.5 31.75C65.1841 31.75 66.7993 32.419 67.9901 33.6099C69.181 34.8007 69.85 36.4159 69.85 38.1V57.15H88.9C90.5841 57.15 92.1993 57.819 93.3901 59.0099C94.581 60.2007 95.25 61.8159 95.25 63.5C95.25 65.1841 94.581 66.7992 93.3901 67.9901C92.1993 69.181 90.5841 69.85 88.9 69.85Z" fill="#B38649"/>
</svg>
