<svg width="63" height="62" viewBox="0 0 63 62" fill="none" xmlns="http://www.w3.org/2000/svg">
<path d="M47.85 0.197517C48.4869 0.196792 49.1249 0.196067 49.7617 0.195342C49.8322 0.22752 49.8992 0.280014 49.9721 0.290684C52.0968 0.6228 53.7922 1.70333 55.1597 3.31589C59.2131 8.0987 58.9278 15.669 54.5384 20.1472C54.4072 20.2812 54.2795 20.4187 54.1387 20.567C54.2415 20.6243 54.2893 20.6648 54.3455 20.6803C54.4794 20.716 54.6156 20.7385 54.7506 20.7695C57.6595 21.4328 59.843 23.0636 61.1424 25.7527C61.5927 26.6841 61.7887 27.7377 62.1016 28.7349C62.1069 33.3144 62.1121 37.8952 62.1173 42.4747C62.0022 43.1964 61.8931 43.9182 61.7721 44.6388C60.4714 52.3716 54.2302 59.0144 46.5892 60.7698C45.4914 61.022 44.3709 61.175 43.2624 61.3734C40.4749 61.3766 37.6863 61.3797 34.8989 61.3829C33.589 61.0499 32.4187 60.4825 31.6181 59.3962C31.0726 59.8412 30.612 60.3197 30.0591 60.6393C29.4884 60.9697 28.8291 61.1461 28.2081 61.3905C25.4206 61.3937 22.632 61.3969 19.8446 61.4C19.1228 61.285 18.401 61.1759 17.6804 61.0548C9.9475 59.753 3.30456 53.5119 1.54789 45.8746C1.29574 44.7769 1.14392 43.6552 0.945519 42.5443C0.940308 37.9648 0.935097 33.384 0.929887 28.8045C0.963236 28.7125 1.01212 28.6216 1.02874 28.526C1.7195 24.4846 4.38309 21.6918 8.40133 20.7959C8.55303 20.7623 8.69873 20.7071 8.84683 20.6628C8.83363 20.609 8.8336 20.5851 8.82283 20.5708C8.78813 20.5231 8.75343 20.4753 8.71276 20.4335C4.96517 16.6301 4.14998 12.128 5.71069 7.15835C6.61069 4.29229 8.3836 2.05965 11.2246 0.840151C11.8551 0.569418 12.5444 0.433626 13.2061 0.235737C13.8429 0.235012 14.4809 0.234287 15.1177 0.233562C15.1871 0.266937 15.254 0.31943 15.3269 0.331295C17.4074 0.661072 19.0789 1.71056 20.4344 3.28013C23.789 7.16527 24.3385 13.3547 21.6839 17.7963C21.0781 18.8101 20.2822 19.7107 19.5653 20.6733C24.0444 21.6108 26.7143 24.3844 27.4448 29.0038C30.1873 27.316 32.8887 27.3297 35.5968 28.9885C36.3311 24.346 39.0019 21.5986 43.5673 20.6209C43.4632 20.5003 43.4045 20.4227 43.3376 20.3535C39.6091 16.5345 38.819 12.0312 40.3916 7.07111C41.2714 4.29587 42.9882 2.11108 45.7157 0.87857C46.388 0.573141 47.1346 0.420557 47.85 0.197517ZM23.3958 51.1366C23.3934 49.0768 23.3541 47.0469 23.3996 45.0182C23.445 42.944 24.46 41.4422 26.3013 40.4963C26.453 40.4184 26.6046 40.3442 26.7706 40.2616C26.712 40.1744 26.688 40.1183 26.6473 40.0801C24.3773 37.9954 23.6228 34.3989 25.285 31.4387C25.3506 31.3216 25.4137 31.1746 25.4017 31.0479C25.2952 29.9047 25.3416 28.7134 25.019 27.6325C24.3006 25.2247 22.6118 23.6961 20.1999 22.939C19.257 25.9246 17.3438 27.7118 14.2027 27.7237C11.0318 27.7369 9.10255 25.9409 8.16247 22.9826C8.09916 22.9934 8.04301 22.9959 7.98926 23.0115C5.04749 23.8822 2.98487 26.6576 2.97175 29.8333C2.9557 33.5765 2.9719 37.3185 2.98333 41.0616C2.98511 41.5778 3.02274 42.0963 3.06873 42.61C3.7874 50.4946 9.33976 56.9591 17.0112 58.8381C18.4191 59.183 19.8483 59.3737 21.3214 59.3457C21.3191 57.2931 21.3168 55.2967 21.3145 53.2883C20.68 53.2245 20.0814 53.2001 19.497 53.0992C13.2984 52.0286 9.11344 47.0691 9.09075 40.7751C9.08034 37.928 9.08069 35.0809 9.08342 32.235C9.08313 31.9805 9.09597 31.7081 9.18173 31.4738C9.35205 31.0124 9.72696 30.7862 10.2157 30.843C10.6984 30.8986 11.0154 31.1862 11.0936 31.6795C11.1273 31.8945 11.1168 32.1168 11.1171 32.3354C11.1215 35.2219 11.1153 38.1085 11.1305 40.995C11.1622 46.7645 15.9413 52.0327 23.3958 51.1366ZM41.763 59.3607C42.3472 59.3194 42.8621 59.289 43.3746 59.2466C52.4685 58.4883 59.7934 50.8407 60.0459 41.7172C60.1583 37.6393 60.1047 33.5557 60.0439 29.4756C59.9974 26.4051 57.7133 23.6036 54.8511 22.933C53.9654 25.7788 52.1334 27.5802 49.0701 27.6769C45.7846 27.781 43.7932 25.9636 42.8112 22.9217C41.4293 23.3223 40.2939 24.056 39.3703 25.1192C37.9683 26.7325 37.5212 28.6458 37.6323 30.7246C37.6482 31.0101 37.7118 31.3171 37.84 31.569C39.2757 34.3787 38.7907 37.6338 36.583 39.8956C36.4791 40.002 36.3909 40.1228 36.2859 40.2472C38.8177 41.3662 39.8045 43.3448 39.6925 45.7679C39.6261 47.2184 39.6827 48.6735 39.6843 50.1276C39.6847 50.4597 39.6851 50.7919 39.6857 51.3056C41.1874 51.1701 42.6367 51.1959 44.0115 50.8861C48.7488 49.8174 51.902 45.7564 51.9251 40.8375C51.9397 37.8912 51.9196 34.9449 51.921 31.9987C51.9213 31.2316 52.3043 30.7831 52.928 30.7836C53.5421 30.7829 53.9525 31.2472 53.9545 31.9975C53.9628 35.0633 54.0141 38.1302 53.9507 41.1948C53.8306 46.9621 49.8777 51.7205 44.2397 52.9504C43.4322 53.1269 42.5983 53.1805 41.7561 53.2949C41.7584 55.2961 41.7606 57.2782 41.763 59.3607ZM7.01071 11.4425C7.0709 13.9359 7.70675 16.2387 9.33388 18.1879C12.0294 21.4178 16.1933 21.4394 18.9448 18.2534C22.0591 14.6476 22.0807 8.40976 18.9915 4.70951C16.2805 1.46165 11.9792 1.46893 9.30185 4.73965C7.70783 6.68415 7.07121 8.96448 7.01071 11.4425ZM55.9765 11.3533C55.9068 8.90295 55.2686 6.62168 53.6654 4.68321C50.9806 1.4389 46.7236 1.42582 44.0139 4.64281C40.9915 8.23173 40.9088 14.2952 43.8331 17.9563C46.6364 21.4669 51.0356 21.4738 53.8238 17.9461C55.339 16.028 55.9303 13.7859 55.9765 11.3533ZM33.4237 30.2264C33.424 30.5119 33.4327 30.7497 33.4234 30.9874C33.3791 32.0114 32.9978 32.9055 32.2088 33.5492C31.9522 33.7586 31.4397 33.8559 31.1337 33.7487C30.8552 33.6511 30.5787 33.2261 30.527 32.9071C30.4825 32.6384 30.7091 32.2737 30.9083 32.0273C31.345 31.488 31.5152 30.9311 31.291 30.2563C31.1736 29.8992 30.9751 29.8158 30.6168 29.8831C28.1919 30.3339 26.3878 32.5128 26.4181 34.9763C26.4484 37.4542 28.2836 39.592 30.7155 39.9835C33.1879 40.3821 35.6177 38.9134 36.4011 36.5457C37.2525 33.9771 35.8643 30.987 33.4237 30.2264ZM37.5741 51.0081C37.6075 50.9041 37.6397 50.8503 37.6396 50.7966C37.6373 48.7882 37.6745 46.7785 37.6148 44.7714C37.5714 43.3174 36.2628 42.0632 34.7956 42.0374C32.6282 42.0005 30.4597 42.0161 28.2924 42.0412C27.4895 42.0505 26.8125 42.3966 26.2457 43.0209C29.1952 46.9113 32.6946 49.9205 37.5741 51.0081ZM23.4436 53.2859C23.4459 55.3409 23.4482 57.3349 23.4505 59.3624C24.7289 59.361 25.9584 59.3596 27.1878 59.3582C27.367 59.358 27.5462 59.3626 27.7243 59.3456C29.2916 59.2005 30.4742 57.9363 30.5119 56.3687C30.5496 54.8525 29.4619 53.4212 27.9862 53.307C26.4902 53.1904 24.9777 53.2841 23.4436 53.2859ZM39.6544 53.2352C38.2517 53.2368 36.9207 53.2216 35.5898 53.2446C33.9589 53.2727 32.6974 54.4677 32.5869 56.0485C32.4728 57.6747 33.545 59.1347 35.1773 59.2846C36.6494 59.4191 38.1427 59.3099 39.6613 59.3082C39.659 57.289 39.6568 55.2938 39.6544 53.2352ZM33.2689 51.6952C30.2456 50.1873 27.6624 48.0731 25.4597 45.3504C25.4621 47.3803 25.4642 49.2632 25.4664 51.2298C27.7662 51.0898 29.9922 51.1494 31.4796 53.1907C32.1063 52.6667 32.6661 52.1989 33.2689 51.6952ZM52.693 22.6739C50.123 22.6768 47.5542 22.6797 44.9795 22.6826C45.31 24.4039 47.0152 25.6923 48.8874 25.6711C50.7333 25.651 52.4213 24.3253 52.693 22.6739ZM10.3235 22.7041C10.5704 24.4255 12.4012 25.7771 14.3617 25.7056C16.1502 25.6402 17.8906 24.2105 18.0036 22.6954C15.4432 22.6983 12.8851 22.7012 10.3235 22.7041Z" fill="#9BBCAB"/>
</svg>
