<svg width="47" height="44" viewBox="0 0 47 44" fill="none" xmlns="http://www.w3.org/2000/svg">
<path d="M41.0788 5.81103L41.0776 5.80985C39.9052 4.65413 38.5301 3.74274 37.028 3.1233L37.026 3.12249C35.4678 2.47731 33.8023 2.15727 32.1256 2.1798L32.122 2.17985C29.7656 2.20594 27.474 2.89447 25.488 4.17092L25.488 4.17095C25.0127 4.47641 24.5625 4.81059 24.1369 5.17361L23.1851 5.98534L22.2156 5.19489C21.782 4.84138 21.3245 4.51725 20.8426 4.22239L20.8426 4.22236C18.8288 2.99019 16.5225 2.35258 14.1661 2.37867C12.4663 2.39749 10.8289 2.74966 9.28418 3.42967L9.28254 3.4304C7.7889 4.08581 6.44549 5.01963 5.29262 6.20655L5.29062 6.2086C4.14645 7.38208 3.23535 8.77737 2.61092 10.3164L41.0788 5.81103ZM41.0788 5.81103C42.2479 6.96084 43.1899 8.33597 43.8505 9.86053C44.5352 11.4471 44.8939 13.1328 44.9084 14.8742L44.9084 14.8783C44.9265 16.5117 44.6213 18.2483 43.9729 20.0522L43.9717 20.0556C43.4347 21.561 42.6354 23.154 41.5943 24.7913C39.9462 27.3797 37.6448 30.1242 34.7389 32.9443C29.9099 37.6269 25.1146 40.8772 24.9372 40.9969L24.9369 40.9971L23.6803 41.8459C23.6799 41.8461 23.6796 41.8463 23.6792 41.8465C23.6176 41.8874 23.5423 41.8882 23.4798 41.8488C23.4795 41.8485 23.4791 41.8483 23.4788 41.8481L22.2037 41.0274L22.1918 41.0198L22.1798 41.0123C22.1805 41.0128 22.1759 41.0099 22.1651 41.003C22.1542 40.996 22.1369 40.985 22.1125 40.9692C22.0676 40.9402 22.005 40.8993 21.9257 40.847C21.7671 40.7424 21.5435 40.593 21.264 40.4019C20.705 40.0198 19.9242 39.4722 18.9943 38.7844C17.1323 37.4072 14.6841 35.4765 12.2259 33.1937L12.2258 33.1936M41.0788 5.81103L12.2258 33.1936M12.2258 33.1936C9.25817 30.4386 6.89662 27.7458 5.1916 25.1945L12.2258 33.1936ZM1.65868 15.3572C1.63936 13.6128 1.96132 11.918 2.61088 10.3165L2.70823 20.5084C2.02025 18.7195 1.67676 16.9904 1.65868 15.3572ZM5.19152 25.1944C4.11629 23.5834 3.28563 22.0071 2.70852 20.5092L5.19152 25.1944Z" stroke="#508FA1" stroke-opacity="0.8" stroke-width="3"/>
</svg>
