<svg width="117" height="123" viewBox="0 0 117 123" fill="none" xmlns="http://www.w3.org/2000/svg">
<g opacity="0.5">
<path d="M61.7254 74.0004C56.3139 76.5136 46.8415 79.8978 44.2472 74.3117C42.6689 70.9132 38.0178 67.6833 33.0464 64.2852C25.9404 59.57 17.9233 54.0868 13.9114 45.4484C9.13329 35.1602 10.1471 23.1331 16.5693 13.8975C22.993 4.6613 33.8486 -0.381796 45.05 0.670478C56.2513 1.72275 66.0936 8.70795 70.8712 18.995C74.8999 27.6697 73.8484 37.2784 72.9253 45.7092L72.9188 45.7687L72.9073 45.8763C72.2714 51.8394 71.671 57.4698 73.2395 60.8471C75.8338 66.4332 67.1369 71.4872 61.7254 74.0004Z" fill="#2B526E"/>
<path fill-rule="evenodd" clip-rule="evenodd" d="M79.9864 33.0345C98.2887 29.5053 111.501 32.0856 115.339 40.3498C119.606 49.5356 111.591 61.2733 98.3644 71.9321C102.408 77.8872 103.992 85.1787 102.781 92.2496C100.834 103.95 93.2072 113.848 82.452 118.633C71.8559 123.764 59.3732 123.205 49.1786 117.144C42.9943 113.507 38.4458 107.592 36.5043 100.661C19.8281 103.891 5.68685 102.441 1.4211 93.2561C-2.41664 84.9926 4.13569 73.2333 18.8086 61.5875C22.2014 64.5197 25.7752 67.2328 29.5057 69.7114C32.9174 71.6032 36.0093 74.0325 38.6639 76.9054C40.7769 81.4551 46.9414 87.8689 64.5136 79.708C82.0851 71.5474 81.1614 62.6996 79.0484 58.1499C78.5052 54.2568 78.5873 50.3052 79.2926 46.4497C79.8064 41.9999 80.0377 37.5182 79.9864 33.0345ZM78.4388 109.995C86.3449 106.531 91.9767 99.3052 93.4533 90.7352C94.2581 86.1629 93.2906 81.4389 90.7499 77.5334C83.8729 82.2228 76.6264 86.3383 69.0781 89.8392C61.5243 93.3532 53.6946 96.2406 45.6665 98.4712C47.0208 102.932 50.0156 106.715 54.0369 109.041C61.5371 113.442 70.6913 113.8 78.4388 109.995Z" fill="#2B526E"/>
</g>
</svg>
