<svg width="51" height="85" viewBox="0 0 51 85" fill="none" xmlns="http://www.w3.org/2000/svg">
<path d="M38.9761 84.7904C38.1713 84.3361 37.9096 83.5783 37.9618 82.5795C38.0266 81.353 38.0395 80.1232 38.0559 78.8935C38.0985 75.5698 39.13 72.7213 41.1651 70.3317C43.344 67.7731 45.0227 64.8412 46.1554 61.5021C47.6348 57.1404 48.0148 52.6583 47.4009 48.0603C47.3765 47.881 47.316 47.7092 47.2473 47.4303C45.725 49.2796 43.8611 49.8804 41.7767 49.9524C40.1282 50.01 38.6869 51.6907 38.4756 53.5832C38.3894 54.3513 39.0171 55.4709 39.6384 55.6539C42.5824 56.5243 44.8379 60.5182 44.2184 63.7605C43.7604 66.1524 41.4525 67.7962 39.6638 66.8833C39.0705 66.5798 38.6468 65.851 38.1327 65.305C36.9406 67.4413 35.0994 68.6772 32.796 68.9884C31.0051 69.2316 29.2889 68.8153 27.6132 68.1269C24.7995 66.9742 22.5134 65.109 21.2468 61.8941C20.2676 59.4108 20.1393 56.7957 20.3763 54.1194C20.4104 53.7361 20.374 53.304 20.2479 52.954C19.0489 49.6052 20.145 45.6143 22.8241 43.6588C25.4831 41.7173 29.1201 42.2385 31.193 44.8564C33.3651 47.6018 33.5213 51.6182 31.5699 54.558C31.4715 54.7056 31.3852 54.8658 31.2938 55.0197C31.3318 55.0801 31.368 55.1405 31.406 55.201C31.6997 54.982 32.053 54.824 32.2785 54.5357C33.1454 53.4205 34.1106 52.5459 35.4627 52.3642C35.6264 52.3414 35.8266 52.0566 35.8998 51.8447C37.0228 48.5342 39.1089 46.7968 42.2082 46.6297C44.2362 46.5194 45.596 45.3276 46.0032 43.337C46.0681 43.0182 46.0634 42.6094 45.9427 42.3294C45.3362 40.9145 44.6752 39.5313 44.0415 38.1302C43.8627 37.7337 43.6591 37.6263 43.2437 37.7602C42.7471 37.9189 42.2067 37.9555 41.689 37.9453C38.5178 37.889 35.3476 37.7957 32.1764 37.7414C31.7858 37.7343 31.3696 37.8251 31.002 37.9848C26.6573 39.8886 22.299 41.7551 17.9861 43.7521C15.0359 45.118 12.078 45.9024 8.85654 44.8633C8.84182 45.4873 8.80401 46.0265 8.81998 46.5649C8.9369 50.2702 8.26393 53.8008 7.25418 57.3234C5.83842 62.2534 5.44543 67.3636 5.70517 72.5365C5.85757 75.5732 6.31988 78.5412 6.95131 81.4824C7.23226 82.793 7.09631 83.1615 6.06705 84.0161C5.78043 84.0094 5.49561 84.0026 5.20899 83.9959C4.58569 83.5972 4.29956 82.962 4.12973 82.1838C2.80021 76.0883 2.35984 69.9112 3.13981 63.6683C3.45582 61.1376 3.90124 58.5914 4.59126 56.1619C5.52756 52.8655 5.97676 49.5514 5.99894 46.104C6.00843 44.4861 5.872 43.3554 4.56702 42.2219C1.4337 39.4989 0.138173 35.6097 0.244499 31.1027C0.432652 23.127 0.620804 15.1514 0.810796 7.17376C0.817865 6.87411 0.83578 6.57061 0.894605 6.28039C1.03854 5.57326 1.63144 5.05744 2.25696 5.05782C2.87895 5.05606 3.47779 5.57947 3.59728 6.28871C3.66317 6.68659 3.66946 7.10361 3.65988 7.50999C3.48029 15.3503 3.30613 23.1887 3.10326 31.0284C3.02453 34.0617 3.71715 36.7641 5.59986 38.936C8.23988 41.98 11.4456 42.9263 14.9762 41.4961C19.6071 39.6196 24.1784 37.5343 28.741 35.4385C30.3301 34.7079 31.8976 34.365 33.6052 34.4628C36.3187 34.6171 39.0413 34.6177 41.7589 34.6777C43.0523 34.7062 43.5499 34.0505 43.3602 32.5921C43.1541 30.9999 41.9472 29.6592 40.4664 29.5955C37.4171 29.464 34.3541 29.2295 31.3135 29.4145C28.6355 29.5772 25.9794 30.2538 23.3143 30.7064C21.2861 31.0508 19.2594 31.4157 17.2297 31.7477C15.2055 32.0799 13.73 30.5029 13.7777 28.0233C13.8636 23.6246 13.9798 19.2286 14.0836 14.8304C14.1145 13.5189 14.1401 12.2073 14.1817 10.8981C14.208 10.0875 14.5091 9.48064 15.2284 9.23065C15.9675 8.97496 16.7837 9.4768 16.9498 10.335C17.0266 10.729 17.0275 11.148 17.0197 11.5544C16.9 16.8538 16.7732 22.1531 16.6482 27.4524C16.6406 27.7746 16.633 28.0968 16.6229 28.5237C17.9472 28.3065 19.1885 28.1119 20.4266 27.9009C23.9179 27.3056 27.4075 26.702 30.8987 26.1067C31.1326 26.0671 31.3742 26.081 31.613 26.064C33.2577 25.9426 34.492 25.0559 35.1601 23.3282C35.8206 21.6188 35.598 19.9625 34.6349 18.4674C34.3963 18.0983 34.1029 17.7689 33.811 17.454C29.6775 12.9866 25.5402 8.52723 21.4066 4.06183C21.113 3.74482 20.8122 3.42969 20.5662 3.06657C20.1298 2.41968 20.1956 1.53204 20.6748 0.970409C21.143 0.420837 21.8424 0.328499 22.4417 0.757452C22.6409 0.899738 22.8212 1.08265 22.9942 1.2695C27.3239 5.93256 31.6572 10.5937 35.9794 15.2668C38.6797 18.187 39.136 22.1693 37.2163 25.8225C37.1694 25.9097 37.1313 26.0032 37.0351 26.2084C38.1583 26.2349 39.1958 26.2429 40.2308 26.2879C43.221 26.4159 45.4496 28.4358 46.0969 31.7675C46.276 32.6856 46.1675 33.7118 46.0393 34.6637C45.972 35.1611 45.9744 35.5185 46.2101 35.9348C48.3915 39.8058 49.8574 43.9927 50.3276 48.6037C51.0116 55.3164 49.8524 61.6037 46.7323 67.3643C45.7559 69.1668 44.5604 70.8369 43.3222 72.4218C41.7623 74.418 40.8838 76.6356 40.903 79.3159C40.9106 80.4353 40.8358 81.5568 40.8345 82.676C40.8342 83.674 40.528 84.4225 39.6871 84.8154C39.4526 84.8017 39.2143 84.796 38.9761 84.7904ZM41.1377 63.7433C41.2488 63.364 41.4587 62.9767 41.4571 62.5906C41.4502 61.2084 40.2637 59.3856 39.1489 58.9281C38.7495 58.7646 38.4582 58.8029 38.1958 59.2875C37.9223 59.7904 37.5601 60.2521 37.1707 60.6495C35.6113 62.2473 33.7071 63.0382 31.7225 63.589C31.0117 63.7858 30.3239 63.2356 30.122 62.4464C29.9283 61.6923 30.2306 60.8841 30.9017 60.5468C31.4459 60.2742 32.0338 60.1217 32.5898 59.8781C33.8195 59.3383 35.0619 58.7926 35.8388 57.4659C36.1284 56.9696 36.4508 56.2954 35.9635 55.8301C35.4534 55.3416 35.022 55.927 34.7265 56.3718C33.4071 58.3572 31.6115 58.7235 29.6575 58.2832C28.224 57.9598 26.8341 57.4629 25.3378 57.4502C24.6192 57.4435 23.9048 57.0344 23.1486 56.7969C23.1391 58.2629 23.4478 59.6132 24.0163 60.8916C25.0375 63.191 26.838 64.365 28.8609 65.152C31.6564 66.2406 34.6437 66.1139 36.2397 62.7365C36.9339 61.2661 38.4822 61.1301 39.6699 62.1439C40.1707 62.5684 40.5857 63.1327 41.1377 63.7433ZM30.0721 50.126C30.1371 47.7536 28.5427 45.8185 26.4722 45.7574C24.4088 45.6984 22.6874 47.5512 22.6212 49.905C22.5552 52.2466 24.1895 54.234 26.2313 54.2986C28.2712 54.3631 30.0077 52.4778 30.0721 50.126Z" fill="#DAC09D"/>
</svg>
